<?xml version="1.0" encoding="UTF-8"?>
<svg xmlns="http://www.w3.org/2000/svg" xmlns:xlink="http://www.w3.org/1999/xlink" width="960pt" height="600pt" viewBox="0 0 960 600" version="1.1">
<g id="surface1">
<rect x="0" y="0" width="960" height="600" style="fill:rgb(0%,0%,0%);fill-opacity:1;stroke:none;"/>
<path style=" stroke:none;fill-rule:nonzero;fill:rgb(100%,90.980392%,12.156863%);fill-opacity:1;" d="M 205.71875 316.765625 L 217.710938 353.226562 C 224.203125 372.9375 229.992188 388.707031 230.75 388.707031 C 230.761719 388.707031 230.773438 388.703125 230.78125 388.695312 C 231.613281 387.933594 255.085938 317.363281 255.085938 317.363281 L 300.585938 317.363281 L 245.695312 482.929688 L 214.070312 482.929688 C 214.070312 482.929688 180.320312 382.015625 180.460938 381.632812 L 145.226562 481.65625 L 113.921875 481.65625 L 59.726562 316.765625 L 105 316.796875 C 105 316.796875 129.804688 389.570312 130.132812 389.570312 C 130.132812 389.570312 130.132812 389.570312 130.132812 389.566406 L 154.882812 316.765625 L 205.71875 316.765625 M 44.269531 305.296875 L 49.25 320.453125 L 103.445312 485.34375 L 106 493.113281 L 152.972656 493.113281 L 155.625 485.578125 L 180.085938 416.128906 C 182.195312 422.476562 184.476562 429.320312 186.753906 436.160156 C 195.175781 461.441406 203.617188 486.675781 203.617188 486.675781 L 206.195312 494.382812 L 253.597656 494.382812 L 256.164062 486.648438 L 311.050781 321.085938 L 316.082031 305.90625 L 247.195312 305.90625 L 244.625 313.632812 C 240.507812 326 235.050781 342.320312 230.382812 356.132812 C 229.679688 354.035156 228.945312 351.835938 228.1875 349.527344 L 216.195312 313.070312 L 213.640625 305.304688 L 147.046875 305.304688 L 144.445312 312.960938 L 129.984375 355.5 C 125.210938 341.601562 119.671875 325.40625 115.4375 312.984375 L 112.835938 305.34375 L 105.007812 305.335938 L 59.734375 305.308594 Z M 44.269531 305.296875 "/>
<path style=" stroke:none;fill-rule:nonzero;fill:rgb(100%,90.980392%,12.156863%);fill-opacity:1;" d="M 906.40625 316.121094 L 906.304688 359.515625 C 906.304688 359.515625 861.148438 359.359375 838.195312 359.359375 C 830.554688 359.359375 825.375 359.382812 825.128906 359.425781 C 821.171875 360.171875 818.65625 368.878906 819.777344 372.703125 C 820.328125 374.632812 824.46875 380.949219 828.945312 386.75 C 833.414062 392.550781 840.761719 402.046875 845.242188 407.84375 C 856.75 422.707031 858.328125 425.640625 859.390625 434.175781 C 861.121094 448.039062 854.789062 463.046875 843.03125 472.9375 C 831.246094 482.863281 831.761719 482.933594 744.289062 482.933594 C 743.019531 482.933594 741.75 482.933594 740.445312 482.933594 C 687.242188 482.921875 659.109375 482.460938 655.011719 481.515625 C 647.734375 479.8125 636.144531 470.019531 605.503906 439.589844 C 594.484375 428.65625 584.328125 419.078125 583.804688 419.078125 C 583.792969 419.078125 583.785156 419.085938 583.785156 419.101562 L 583.421875 482.9375 L 533.765625 482.710938 L 533.460938 318.0625 L 644.207031 318.0625 C 677.585938 319.304688 700.171875 353.730469 695.679688 375.683594 C 694.65625 380.664062 692.054688 387.882812 689.898438 391.71875 C 685.453125 399.597656 674.15625 409.707031 664.980469 414.046875 C 661.59375 415.632812 658.828125 417.480469 658.828125 418.140625 C 658.828125 420.585938 669.976562 431.957031 674.15625 433.765625 C 677.71875 435.308594 688.109375 435.652344 733.925781 435.652344 C 739.296875 435.652344 744.171875 435.65625 748.601562 435.65625 C 794.652344 435.65625 792.335938 435.3125 795.894531 427.433594 C 798.382812 421.949219 796.492188 418.671875 778.964844 398.234375 C 756.761719 375.367188 759.085938 364.410156 758.933594 356.320312 C 758.617188 346.625 765.992188 316.125 804.320312 316.125 L 906.40625 316.121094 M 608.90625 392.1875 C 630.164062 392.1875 634.484375 391.84375 639.007812 389.8125 C 654.28125 382.9375 655.09375 362.632812 640.445312 353.625 C 637.238281 351.648438 633.117188 351.320312 610.070312 351.1875 L 583.398438 351.046875 C 583.621094 351.257812 583.316406 390.523438 583.316406 390.523438 C 583.316406 390.523438 589.996094 392.1875 608.90625 392.1875 M 917.5 304.664062 L 804.320312 304.664062 C 782.140625 304.664062 769.023438 313.726562 761.929688 321.328125 C 750.382812 333.691406 747.664062 349.257812 747.871094 356.597656 C 747.882812 357.210938 747.875 357.835938 747.867188 358.492188 C 747.765625 370.417969 749.464844 383.921875 770.914062 406.097656 C 775.152344 411.039062 782.242188 419.328125 784.925781 423.445312 C 779.0625 424.195312 764.203125 424.195312 748.597656 424.195312 L 741.96875 424.195312 L 733.921875 424.1875 C 706.390625 424.1875 683.171875 424.109375 678.414062 423.136719 C 677.75 422.6875 676.816406 421.914062 675.789062 420.992188 C 685.304688 414.925781 694.921875 405.527344 699.449219 397.492188 C 702.199219 392.601562 705.226562 384.253906 706.5 378.0625 C 709.324219 364.277344 704.671875 347.648438 694.050781 333.570312 C 681.664062 317.144531 663.640625 307.320312 644.601562 306.609375 L 644.40625 306.597656 L 522.367188 306.597656 L 522.390625 318.078125 L 522.695312 482.726562 L 522.71875 494.109375 L 533.710938 494.160156 L 583.371094 494.386719 L 594.421875 494.4375 L 594.484375 483 L 594.703125 444.757812 C 595.714844 445.75 596.765625 446.789062 597.839844 447.855469 C 631.351562 481.132812 642.601562 490.355469 652.5625 492.6875 C 655.304688 493.320312 659.832031 494.367188 740.4375 494.390625 L 744.28125 494.390625 C 787.914062 494.390625 809.820312 494.390625 822.851562 493.085938 C 837.773438 491.59375 842.570312 488.089844 849.769531 482.023438 L 850.007812 481.820312 C 864.789062 469.382812 872.585938 450.5625 870.363281 432.703125 C 868.914062 421.09375 865.945312 416.265625 853.871094 400.675781 L 850.28125 396.035156 C 846.078125 390.59375 841 384.023438 837.59375 379.601562 C 834.84375 376.046875 832.6875 372.890625 831.382812 370.820312 C 833.09375 370.816406 835.3125 370.8125 838.1875 370.8125 C 860.867188 370.8125 905.8125 370.96875 906.265625 370.972656 L 917.34375 371.007812 L 917.367188 359.539062 L 917.472656 316.144531 Z M 594.453125 380.3125 C 594.46875 377.421875 594.484375 374.175781 594.503906 370.921875 C 594.515625 368.0625 594.53125 365.191406 594.535156 362.5625 L 610.007812 362.644531 C 618.902344 362.695312 632.285156 362.773438 634.890625 363.539062 C 638.222656 365.628906 640.078125 368.863281 639.878906 372.214844 C 639.765625 374.023438 638.9375 377.351562 634.59375 379.304688 C 632.171875 380.390625 628.3125 380.734375 608.90625 380.734375 C 602.75 380.734375 598 380.546875 594.453125 380.3125 Z M 594.453125 380.3125 "/>
<path style=" stroke:none;fill-rule:nonzero;fill:rgb(100%,90.980392%,12.156863%);fill-opacity:1;" d="M 432.84375 315.445312 L 488.574219 481.441406 L 443.160156 481.65625 L 435.621094 456.726562 L 354.421875 456.050781 L 347.257812 481.011719 L 302.300781 480.523438 L 357.328125 315.515625 L 432.84375 315.445312 M 396.320312 339.785156 C 396.207031 340.261719 389.203125 360.148438 382.179688 380.03125 C 375.097656 400.078125 367.992188 420.125 367.894531 420.28125 C 367.894531 420.28125 367.890625 420.28125 367.894531 420.28125 C 368.082031 420.222656 393.230469 420.164062 409.351562 420.164062 C 416.890625 420.164062 422.453125 420.179688 422.558594 420.207031 C 422.5625 420.210938 422.5625 420.214844 422.5625 420.214844 C 422.5625 420.214844 422.5625 420.210938 422.5625 420.210938 C 422.5625 420.210938 422.5625 420.210938 422.558594 420.207031 C 422.277344 419.449219 396.402344 340.75 396.320312 339.785156 C 396.320312 339.78125 396.320312 339.773438 396.320312 339.773438 C 396.320312 339.773438 396.320312 339.78125 396.320312 339.785156 M 440.707031 303.984375 L 432.832031 303.992188 L 357.320312 304.0625 L 349.4375 304.070312 L 346.867188 311.78125 L 291.84375 476.789062 L 286.828125 491.816406 L 302.1875 491.980469 L 347.144531 492.46875 L 355.488281 492.5625 L 357.867188 484.28125 L 362.664062 467.578125 L 427.476562 468.117188 L 432.601562 485.085938 L 435.046875 493.15625 L 443.214844 493.117188 L 488.625 492.90625 L 504.113281 492.828125 L 499.03125 477.6875 L 443.296875 311.695312 Z M 383.820312 408.722656 C 385.917969 402.808594 388.742188 394.816406 392.574219 383.964844 C 393.777344 380.5625 394.875 377.445312 395.882812 374.59375 C 396.804688 377.390625 397.800781 380.4375 398.882812 383.753906 C 399.78125 386.484375 403.707031 398.460938 407.074219 408.710938 C 397.0625 408.710938 389.523438 408.710938 383.820312 408.722656 Z M 383.820312 408.722656 "/>
<path style=" stroke:none;fill-rule:nonzero;fill:rgb(100%,90.980392%,12.156863%);fill-opacity:1;" d="M 451.625 117.320312 L 451.625 158.273438 L 372.390625 158.273438 L 372.390625 283.53125 L 325.152344 283.53125 L 325.152344 158.171875 L 232.664062 158.445312 C 221.515625 158.445312 220.023438 167.640625 220.023438 171.164062 C 220.023438 175.484375 222.75 179.8125 237.714844 199.429688 C 247.425781 212.171875 256.347656 224.890625 257.523438 227.667969 C 263.941406 242.960938 255.640625 266.789062 240.523438 276.46875 C 229.75 283.359375 231.585938 283.53125 151.566406 283.53125 C 147.453125 283.53125 143.132812 283.53125 138.574219 283.53125 L 52.4375 283.53125 L 52.4375 237.523438 L 187.859375 237.523438 L 191.859375 234.640625 C 194.554688 232.695312 196.117188 230.015625 196.714844 226.351562 C 197.546875 221.082031 197.117188 220.394531 180.390625 200.890625 C 160.625 177.835938 158.535156 173.625 159.558594 158.90625 C 160.71875 142.109375 175.1875 117.707031 200.476562 117.707031 L 451.625 117.320312 M 462.691406 105.84375 L 451.609375 105.863281 L 200.460938 106.25 C 185.992188 106.25 172.554688 112.71875 162.636719 124.46875 C 154.59375 133.992188 149.316406 146.5625 148.519531 158.085938 C 147.171875 177.433594 151.476562 184.425781 172.113281 208.492188 C 178.101562 215.476562 183.796875 222.121094 185.695312 224.945312 C 185.667969 225.054688 185.640625 225.128906 185.625 225.171875 C 185.601562 225.1875 185.570312 225.210938 185.523438 225.242188 L 184.390625 226.0625 L 41.371094 226.0625 L 41.371094 294.984375 L 151.566406 294.984375 C 191.023438 294.984375 210.492188 294.945312 221.96875 294.078125 C 235.09375 293.078125 239.28125 290.75 245.558594 286.714844 L 246.34375 286.210938 C 266.070312 273.582031 276.234375 243.5 267.671875 223.101562 C 265.03125 216.859375 248.304688 194.824219 246.40625 192.332031 C 241.15625 185.449219 232.484375 174.085938 231.113281 170.800781 C 231.148438 170.523438 231.210938 170.238281 231.28125 170.039062 C 231.507812 169.976562 231.945312 169.898438 232.664062 169.898438 L 314.085938 169.660156 L 314.085938 294.984375 L 383.457031 294.984375 L 383.457031 169.726562 L 462.691406 169.726562 Z M 462.691406 105.84375 "/>
<path style=" stroke:none;fill-rule:nonzero;fill:rgb(100%,90.980392%,12.156863%);fill-opacity:1;" d="M 580.355469 118.648438 L 635.9375 285.074219 L 590.605469 284.816406 L 583.246094 259.886719 L 502.40625 259.515625 L 495.1875 283.527344 L 449.027344 283.527344 L 504 118.648438 L 580.355469 118.648438 M 515.601562 224.074219 L 570.65625 224 C 570.65625 224 570.65625 224.003906 570.65625 224.003906 C 570.847656 224.003906 543.90625 142.09375 543.726562 142.035156 C 543.527344 142.027344 514.980469 224.074219 515.601562 224.074219 M 588.238281 107.195312 L 496.109375 107.195312 L 493.539062 114.914062 L 438.566406 279.789062 L 433.5 294.984375 L 503.335938 294.984375 L 505.757812 286.933594 L 510.542969 271.007812 L 575.046875 271.304688 L 580.027344 288.164062 L 582.40625 296.226562 L 590.550781 296.273438 L 635.882812 296.53125 L 651.507812 296.617188 L 646.402344 281.332031 L 590.820312 114.90625 Z M 530.976562 212.597656 C 534.390625 202.535156 539.140625 188.742188 543.445312 176.351562 C 547.523438 188.726562 552.03125 202.476562 555.324219 212.566406 Z M 530.976562 212.597656 "/>
<path style=" stroke:none;fill-rule:nonzero;fill:rgb(100%,90.980392%,12.156863%);fill-opacity:1;" d="M 736.453125 118.648438 C 772.3125 118.648438 797.195312 119.179688 801.984375 120.039062 C 813.046875 122.03125 823.046875 128.144531 830.546875 137.539062 C 838.390625 147.359375 840.1875 152.058594 841.210938 165.515625 C 842.679688 184.523438 833.949219 200.914062 816.726562 211.554688 C 811.707031 214.664062 806.546875 217.6875 805.257812 218.289062 C 803.28125 219.21875 803.546875 220.105469 807.085938 224.402344 C 809.367188 227.164062 813.324219 231.101562 815.867188 233.148438 L 820.515625 236.890625 L 906.390625 238.164062 L 907.234375 283.527344 L 854.585938 283.527344 C 813.863281 283.527344 800.828125 283.140625 797.015625 281.808594 C 791.300781 279.804688 777.550781 267.75 749.609375 240.226562 L 729.660156 220.578125 L 729.867188 283.527344 L 678.628906 283.527344 L 678.628906 118.648438 L 736.453125 118.648438 M 728.90625 192.78125 L 756.117188 192.78125 C 782.59375 192.78125 783.421875 192.695312 787.199219 189.761719 C 793.953125 184.523438 796.339844 179.125 795.625 170.828125 C 794.890625 162.28125 791.710938 157.828125 783.726562 154.25 C 779.230469 152.214844 774.898438 151.886719 753.679688 151.886719 L 728.90625 151.886719 L 728.90625 192.78125 M 736.453125 107.195312 L 667.570312 107.195312 L 667.570312 294.984375 L 740.980469 294.984375 L 740.941406 283.488281 L 740.820312 247.378906 L 741.984375 248.523438 C 776.546875 282.566406 786.742188 290.296875 793.464844 292.65625 C 798.628906 294.460938 807.273438 294.984375 854.589844 294.984375 L 918.515625 294.984375 L 918.304688 283.304688 L 917.460938 237.941406 L 917.257812 226.867188 L 906.554688 226.710938 L 824.386719 225.492188 L 822.664062 224.105469 C 822.117188 223.664062 821.453125 223.078125 820.742188 222.414062 C 821.359375 222.039062 821.921875 221.691406 822.414062 221.390625 C 843.164062 208.570312 854.042969 187.871094 852.25 164.609375 C 851.054688 148.914062 848.347656 141.84375 839.078125 130.242188 C 829.972656 118.828125 817.472656 111.195312 803.878906 108.753906 C 796.328125 107.398438 758.398438 107.195312 736.453125 107.195312 Z M 739.972656 163.34375 L 753.679688 163.34375 C 773.085938 163.34375 776.929688 163.675781 779.296875 164.746094 C 783.789062 166.765625 784.25 167.742188 784.601562 171.84375 C 784.953125 175.921875 784.46875 177.5625 780.558594 180.597656 C 780.429688 180.695312 780.332031 180.773438 780.25 180.835938 C 777.671875 181.328125 768.097656 181.328125 756.117188 181.328125 L 739.972656 181.328125 Z M 739.972656 163.34375 "/>
</g>
</svg>
