<?xml version="1.0" encoding="UTF-8"?>
<svg xmlns="http://www.w3.org/2000/svg" xmlns:xlink="http://www.w3.org/1999/xlink" width="1920pt" height="1200pt" viewBox="0 0 1920 1200" version="1.1">
<g id="surface1">
<rect x="0" y="0" width="1920" height="1200" style="fill:rgb(0%,0%,0%);fill-opacity:1;stroke:none;"/>
<path style=" stroke:none;fill-rule:nonzero;fill:rgb(100%,90.980392%,12.156863%);fill-opacity:1;" d="M 411.4375 633.527344 L 435.425781 706.449219 C 448.402344 745.878906 459.988281 777.414062 461.5 777.414062 C 461.523438 777.414062 461.546875 777.402344 461.566406 777.386719 C 463.226562 775.867188 510.175781 634.726562 510.175781 634.726562 L 601.167969 634.726562 L 491.390625 965.855469 L 428.144531 965.855469 C 428.144531 965.855469 360.640625 764.03125 360.917969 763.261719 L 290.453125 963.3125 L 227.847656 963.3125 L 119.453125 633.527344 L 210.003906 633.589844 C 210.003906 633.589844 259.605469 779.136719 260.265625 779.136719 C 260.269531 779.136719 260.269531 779.136719 260.269531 779.132812 L 309.765625 633.527344 L 411.4375 633.527344 M 88.539062 610.597656 L 98.5 640.910156 L 206.894531 970.691406 L 212 986.226562 L 305.945312 986.226562 L 311.25 971.160156 L 360.175781 832.257812 C 364.394531 844.957031 368.949219 858.644531 373.507812 872.320312 C 390.351562 922.882812 407.234375 973.351562 407.234375 973.351562 L 412.390625 988.769531 L 507.195312 988.769531 L 512.324219 973.292969 L 622.101562 642.167969 L 632.164062 611.816406 L 494.390625 611.816406 L 489.25 627.269531 C 481.019531 652 470.101562 684.636719 460.765625 712.261719 C 459.355469 708.070312 457.890625 703.667969 456.375 699.054688 L 432.390625 626.140625 L 427.28125 610.613281 L 294.09375 610.613281 L 288.886719 625.921875 L 259.96875 711 C 250.417969 683.199219 239.339844 650.808594 230.875 625.964844 L 225.667969 610.6875 L 210.019531 610.675781 L 119.46875 610.617188 Z M 88.539062 610.597656 "/>
<path style=" stroke:none;fill-rule:nonzero;fill:rgb(100%,90.980392%,12.156863%);fill-opacity:1;" d="M 1812.816406 632.242188 L 1812.609375 719.035156 C 1812.609375 719.035156 1722.300781 718.722656 1676.386719 718.722656 C 1661.113281 718.722656 1650.75 718.761719 1650.257812 718.851562 C 1642.347656 720.34375 1637.308594 737.757812 1639.554688 745.402344 C 1640.65625 749.269531 1648.933594 761.898438 1657.894531 773.5 C 1666.828125 785.101562 1681.523438 804.089844 1690.484375 815.683594 C 1713.5 845.414062 1716.65625 851.28125 1718.785156 868.351562 C 1722.242188 896.078125 1709.574219 926.089844 1686.058594 945.878906 C 1662.492188 965.726562 1663.523438 965.867188 1488.574219 965.867188 C 1486.039062 965.867188 1483.496094 965.867188 1480.890625 965.867188 C 1374.488281 965.839844 1318.214844 964.925781 1310.023438 963.035156 C 1295.472656 959.628906 1272.289062 940.039062 1211.007812 879.179688 C 1188.96875 857.308594 1168.65625 838.160156 1167.613281 838.15625 C 1167.585938 838.15625 1167.570312 838.171875 1167.570312 838.203125 L 1166.847656 965.875 L 1067.53125 965.417969 L 1066.917969 636.121094 L 1288.414062 636.121094 C 1355.171875 638.613281 1400.347656 707.460938 1391.359375 751.367188 C 1389.3125 761.328125 1384.109375 775.769531 1379.792969 783.441406 C 1370.910156 799.195312 1348.308594 819.414062 1329.960938 828.09375 C 1323.1875 831.269531 1317.652344 834.960938 1317.652344 836.28125 C 1317.652344 841.175781 1339.957031 863.914062 1348.308594 867.527344 C 1355.441406 870.617188 1376.222656 871.304688 1467.851562 871.304688 C 1478.589844 871.304688 1488.347656 871.308594 1497.199219 871.308594 C 1589.304688 871.308594 1584.671875 870.621094 1591.789062 854.867188 C 1596.769531 843.898438 1592.980469 837.339844 1557.929688 796.46875 C 1513.523438 750.730469 1518.171875 728.820312 1517.867188 712.640625 C 1517.234375 693.25 1531.984375 632.25 1608.644531 632.25 L 1812.816406 632.242188 M 1217.8125 784.375 C 1260.332031 784.375 1268.964844 783.691406 1278.015625 779.621094 C 1308.558594 765.875 1310.191406 725.265625 1280.890625 707.246094 C 1274.476562 703.292969 1266.230469 702.636719 1220.136719 702.378906 L 1166.800781 702.089844 C 1167.242188 702.519531 1166.632812 781.046875 1166.632812 781.046875 C 1166.632812 781.046875 1179.992188 784.375 1217.8125 784.375 M 1835.003906 609.332031 L 1608.640625 609.332031 C 1564.285156 609.332031 1538.050781 627.453125 1523.855469 642.660156 C 1500.761719 667.382812 1495.324219 698.515625 1495.742188 713.195312 C 1495.761719 714.417969 1495.75 715.671875 1495.734375 716.980469 C 1495.535156 740.835938 1498.929688 767.839844 1541.824219 812.195312 C 1550.304688 822.082031 1564.488281 838.65625 1569.851562 846.894531 C 1558.128906 848.386719 1528.410156 848.386719 1497.195312 848.386719 L 1483.9375 848.386719 L 1467.847656 848.378906 C 1412.78125 848.378906 1366.347656 848.214844 1356.832031 846.273438 C 1355.5 845.371094 1353.632812 843.828125 1351.582031 841.980469 C 1370.605469 829.851562 1389.84375 811.054688 1398.898438 794.980469 C 1404.398438 785.203125 1410.457031 768.507812 1413.003906 756.121094 C 1418.648438 728.554688 1409.339844 695.300781 1388.101562 667.144531 C 1363.324219 634.289062 1327.277344 614.636719 1289.207031 613.214844 L 1288.808594 613.195312 L 1044.734375 613.195312 L 1044.777344 636.15625 L 1045.390625 965.453125 L 1045.433594 988.21875 L 1067.425781 988.320312 L 1166.742188 988.773438 L 1188.84375 988.875 L 1188.972656 965.996094 L 1189.402344 889.511719 C 1191.429688 891.503906 1193.527344 893.574219 1195.679688 895.710938 C 1262.703125 962.269531 1285.203125 980.710938 1305.128906 985.378906 C 1310.605469 986.640625 1319.664062 988.734375 1480.871094 988.78125 L 1488.558594 988.78125 C 1575.832031 988.78125 1619.640625 988.78125 1645.699219 986.171875 C 1675.546875 983.1875 1685.144531 976.179688 1699.539062 964.050781 L 1700.015625 963.644531 C 1729.578125 938.765625 1745.175781 901.125 1740.726562 865.410156 C 1737.828125 842.183594 1731.890625 832.535156 1707.742188 801.351562 L 1700.566406 792.070312 C 1692.15625 781.191406 1681.996094 768.050781 1675.183594 759.207031 C 1669.6875 752.09375 1665.375 745.777344 1662.769531 741.644531 C 1666.1875 741.632812 1670.628906 741.628906 1676.375 741.628906 C 1721.734375 741.628906 1811.625 741.9375 1812.527344 741.945312 L 1834.683594 742.019531 L 1834.738281 719.082031 L 1834.945312 632.289062 Z M 1188.902344 760.628906 C 1188.9375 754.839844 1188.972656 748.351562 1189.007812 741.847656 C 1189.035156 736.121094 1189.0625 730.382812 1189.070312 725.125 L 1220.019531 725.289062 C 1237.804688 725.390625 1264.570312 725.542969 1269.785156 727.074219 C 1276.445312 731.257812 1280.160156 737.726562 1279.757812 744.429688 C 1279.535156 748.050781 1277.871094 754.707031 1269.1875 758.609375 C 1264.34375 760.785156 1256.625 761.464844 1217.8125 761.464844 C 1205.5 761.464844 1196.003906 761.09375 1188.902344 760.628906 Z M 1188.902344 760.628906 "/>
<path style=" stroke:none;fill-rule:nonzero;fill:rgb(100%,90.980392%,12.156863%);fill-opacity:1;" d="M 865.683594 630.894531 L 977.148438 962.882812 L 886.320312 963.3125 L 871.242188 913.453125 L 708.84375 912.101562 L 694.515625 962.023438 L 604.601562 961.046875 L 714.65625 631.035156 L 865.683594 630.894531 M 792.640625 679.570312 C 792.414062 680.523438 778.410156 720.292969 764.363281 760.058594 C 750.195312 800.152344 735.984375 840.25 735.789062 840.5625 C 735.789062 840.5625 735.785156 840.5625 735.789062 840.5625 C 736.164062 840.445312 786.460938 840.332031 818.699219 840.332031 C 833.785156 840.332031 844.910156 840.359375 845.117188 840.414062 C 845.121094 840.425781 845.121094 840.429688 845.121094 840.429688 C 845.121094 840.429688 845.121094 840.425781 845.121094 840.421875 C 845.121094 840.421875 845.121094 840.421875 845.117188 840.414062 C 844.554688 838.898438 792.804688 681.503906 792.640625 679.570312 C 792.644531 679.558594 792.644531 679.550781 792.644531 679.550781 C 792.640625 679.550781 792.640625 679.558594 792.640625 679.570312 M 881.414062 607.96875 L 865.664062 607.980469 L 714.636719 608.128906 L 698.878906 608.140625 L 693.738281 623.566406 L 583.683594 953.578125 L 573.660156 983.632812 L 604.375 983.960938 L 694.289062 984.9375 L 710.976562 985.121094 L 715.734375 968.558594 L 725.324219 935.160156 L 854.949219 936.234375 L 865.207031 970.167969 L 870.089844 986.3125 L 886.429688 986.238281 L 977.253906 985.808594 L 1008.226562 985.660156 L 998.058594 955.378906 L 886.59375 623.386719 Z M 767.644531 817.445312 C 771.835938 805.617188 777.484375 789.632812 785.148438 767.929688 C 787.554688 761.125 789.753906 754.894531 791.769531 749.183594 C 793.605469 754.785156 795.601562 760.878906 797.769531 767.507812 C 799.558594 772.964844 807.414062 796.921875 814.148438 817.421875 C 794.121094 817.421875 779.042969 817.421875 767.644531 817.445312 Z M 767.644531 817.445312 "/>
<path style=" stroke:none;fill-rule:nonzero;fill:rgb(100%,90.980392%,12.156863%);fill-opacity:1;" d="M 903.253906 234.636719 L 903.253906 316.546875 L 744.78125 316.546875 L 744.78125 567.058594 L 650.304688 567.058594 L 650.304688 316.347656 L 465.332031 316.890625 C 443.03125 316.890625 440.046875 335.277344 440.046875 342.324219 C 440.046875 350.972656 445.496094 359.621094 475.429688 398.859375 C 494.851562 424.347656 512.695312 449.78125 515.046875 455.335938 C 527.882812 485.921875 511.285156 533.578125 481.046875 552.9375 C 459.496094 566.722656 463.175781 567.0625 303.132812 567.0625 C 294.90625 567.0625 286.269531 567.0625 277.148438 567.0625 L 104.875 567.0625 L 104.875 475.042969 L 375.722656 475.042969 L 383.71875 469.285156 C 389.113281 465.390625 392.238281 460.035156 393.429688 452.703125 C 395.089844 442.164062 394.230469 440.789062 360.78125 401.78125 C 321.25 355.671875 317.070312 347.253906 319.117188 317.8125 C 321.441406 284.214844 350.378906 235.414062 400.953125 235.414062 L 903.253906 234.636719 M 925.382812 211.691406 L 903.214844 211.726562 L 400.917969 212.5 C 371.984375 212.5 345.113281 225.441406 325.273438 248.9375 C 309.1875 267.988281 298.632812 293.125 297.039062 316.171875 C 294.347656 354.867188 302.949219 368.851562 344.226562 416.988281 C 356.203125 430.957031 367.59375 444.242188 371.394531 449.886719 C 371.335938 450.113281 371.28125 450.257812 371.246094 450.339844 C 371.203125 450.375 371.140625 450.425781 371.050781 450.488281 L 368.777344 452.128906 L 82.742188 452.128906 L 82.742188 589.96875 L 303.132812 589.96875 C 382.042969 589.96875 420.988281 589.894531 443.933594 588.152344 C 470.191406 586.160156 478.566406 581.5 491.117188 573.429688 L 492.683594 572.425781 C 532.140625 547.164062 552.472656 487.003906 535.347656 446.199219 C 530.0625 433.71875 496.609375 389.648438 492.808594 384.664062 C 482.308594 370.898438 464.972656 348.175781 462.226562 341.601562 C 462.292969 341.050781 462.425781 340.476562 462.5625 340.078125 C 463.019531 339.957031 463.894531 339.796875 465.332031 339.796875 L 628.171875 339.320312 L 628.171875 589.964844 L 766.914062 589.964844 L 766.914062 339.453125 L 925.382812 339.453125 Z M 925.382812 211.691406 "/>
<path style=" stroke:none;fill-rule:nonzero;fill:rgb(100%,90.980392%,12.156863%);fill-opacity:1;" d="M 1160.710938 237.300781 L 1271.871094 570.148438 L 1181.210938 569.632812 L 1166.492188 519.773438 L 1004.816406 519.027344 L 990.371094 567.054688 L 898.054688 567.054688 L 1007.996094 237.300781 L 1160.710938 237.300781 M 1031.203125 448.148438 L 1141.316406 448.003906 C 1141.316406 448.003906 1141.316406 448.007812 1141.316406 448.007812 C 1141.695312 448.007812 1087.808594 284.183594 1087.449219 284.070312 C 1087.054688 284.054688 1029.960938 448.148438 1031.203125 448.148438 M 1176.476562 214.386719 L 992.222656 214.386719 L 987.078125 229.824219 L 877.132812 559.582031 L 867 589.96875 L 1006.667969 589.96875 L 1011.511719 573.867188 L 1021.085938 542.015625 L 1150.097656 542.609375 L 1160.054688 576.328125 L 1164.816406 592.449219 L 1181.101562 592.546875 L 1271.761719 593.0625 L 1303.015625 593.238281 L 1292.804688 562.664062 L 1181.644531 229.8125 Z M 1061.949219 425.195312 C 1068.777344 405.070312 1078.285156 377.488281 1086.890625 352.703125 C 1095.042969 377.457031 1104.066406 404.957031 1110.648438 425.132812 Z M 1061.949219 425.195312 "/>
<path style=" stroke:none;fill-rule:nonzero;fill:rgb(100%,90.980392%,12.156863%);fill-opacity:1;" d="M 1472.910156 237.300781 C 1544.625 237.300781 1594.390625 238.359375 1603.964844 240.078125 C 1626.097656 244.058594 1646.097656 256.289062 1661.09375 275.074219 C 1676.78125 294.722656 1680.375 304.117188 1682.421875 331.035156 C 1685.359375 369.042969 1667.898438 401.832031 1633.457031 423.113281 C 1623.414062 429.328125 1613.097656 435.371094 1610.519531 436.574219 C 1606.5625 438.433594 1607.09375 440.210938 1614.171875 448.804688 C 1618.734375 454.332031 1626.648438 462.207031 1631.738281 466.300781 L 1641.035156 473.777344 L 1812.785156 476.324219 L 1814.46875 567.054688 L 1709.171875 567.054688 C 1627.726562 567.054688 1601.660156 566.28125 1594.027344 563.617188 C 1582.601562 559.609375 1555.101562 535.496094 1499.214844 480.449219 L 1459.320312 441.15625 L 1459.738281 567.054688 L 1357.257812 567.054688 L 1357.257812 237.300781 L 1472.910156 237.300781 M 1457.8125 385.566406 L 1512.230469 385.566406 C 1565.1875 385.566406 1566.839844 385.394531 1574.398438 379.523438 C 1587.902344 369.042969 1592.679688 358.246094 1591.25 341.660156 C 1589.78125 324.5625 1583.417969 315.65625 1567.453125 308.496094 C 1558.460938 304.429688 1549.800781 303.773438 1507.359375 303.773438 L 1457.8125 303.773438 L 1457.8125 385.566406 M 1472.910156 214.386719 L 1335.136719 214.386719 L 1335.136719 589.96875 L 1481.960938 589.96875 L 1481.882812 566.976562 L 1481.640625 494.757812 L 1483.964844 497.046875 C 1553.089844 565.132812 1573.480469 580.597656 1586.929688 585.316406 C 1597.257812 588.921875 1614.546875 589.96875 1709.179688 589.96875 L 1837.035156 589.96875 L 1836.605469 566.613281 L 1834.917969 475.882812 L 1834.511719 453.734375 L 1813.113281 453.417969 L 1648.773438 450.980469 L 1645.328125 448.210938 C 1644.234375 447.324219 1642.90625 446.15625 1641.488281 444.832031 C 1642.71875 444.078125 1643.847656 443.382812 1644.824219 442.78125 C 1686.332031 417.140625 1708.085938 375.742188 1704.496094 329.214844 C 1702.109375 297.828125 1696.695312 283.691406 1678.160156 260.480469 C 1659.945312 237.65625 1634.945312 222.394531 1607.757812 217.507812 C 1592.652344 214.792969 1516.792969 214.386719 1472.910156 214.386719 Z M 1479.945312 326.683594 L 1507.359375 326.683594 C 1546.167969 326.683594 1553.855469 327.351562 1558.59375 329.492188 C 1567.582031 333.527344 1568.496094 335.480469 1569.203125 343.691406 C 1569.910156 351.847656 1568.933594 355.128906 1561.117188 361.195312 C 1560.859375 361.390625 1560.664062 361.546875 1560.5 361.667969 C 1555.339844 362.65625 1536.195312 362.65625 1512.230469 362.65625 L 1479.945312 362.65625 Z M 1479.945312 326.683594 "/>
</g>
</svg>
