<?xml version="1.0" encoding="UTF-8"?>
<svg xmlns="http://www.w3.org/2000/svg" xmlns:xlink="http://www.w3.org/1999/xlink" width="640pt" height="400pt" viewBox="0 0 640 400" version="1.1">
<g id="surface1">
<rect x="0" y="0" width="640" height="400" style="fill:rgb(0%,0%,0%);fill-opacity:1;stroke:none;"/>
<path style=" stroke:none;fill-rule:nonzero;fill:rgb(100%,90.980392%,12.156863%);fill-opacity:1;" d="M 137.144531 211.175781 L 145.140625 235.484375 C 149.46875 248.625 153.328125 259.136719 153.832031 259.136719 C 153.839844 259.136719 153.847656 259.136719 153.855469 259.128906 C 154.410156 258.621094 170.058594 211.574219 170.058594 211.574219 L 200.390625 211.574219 L 163.796875 321.953125 L 142.714844 321.953125 C 142.714844 321.953125 120.214844 254.675781 120.308594 254.421875 L 96.816406 321.105469 L 75.949219 321.105469 L 39.816406 211.175781 L 70 211.199219 C 70 211.199219 86.535156 259.714844 86.753906 259.714844 C 86.753906 259.714844 86.753906 259.714844 86.753906 259.710938 L 103.253906 211.175781 L 137.144531 211.175781 M 29.511719 203.53125 L 32.832031 213.636719 L 68.964844 323.5625 L 70.667969 328.742188 L 101.980469 328.742188 L 103.75 323.71875 L 120.058594 277.417969 C 121.464844 281.652344 122.984375 286.214844 124.503906 290.773438 C 130.117188 307.628906 135.746094 324.449219 135.746094 324.449219 L 137.464844 329.589844 L 169.066406 329.589844 L 170.777344 324.433594 L 207.367188 214.058594 L 210.722656 203.9375 L 164.796875 203.9375 L 163.082031 209.089844 C 160.339844 217.332031 156.699219 228.214844 153.589844 237.421875 C 153.121094 236.023438 152.628906 234.558594 152.125 233.019531 L 144.128906 208.714844 L 142.425781 203.535156 L 98.03125 203.535156 L 96.296875 208.640625 L 86.65625 237 C 83.472656 227.734375 79.78125 216.9375 76.957031 208.65625 L 75.222656 203.5625 L 70.003906 203.558594 L 39.824219 203.539062 Z M 29.511719 203.53125 "/>
<path style=" stroke:none;fill-rule:nonzero;fill:rgb(100%,90.980392%,12.156863%);fill-opacity:1;" d="M 604.269531 210.746094 L 604.203125 239.675781 C 604.203125 239.675781 574.097656 239.574219 558.796875 239.574219 C 553.703125 239.574219 550.25 239.589844 550.085938 239.617188 C 547.449219 240.113281 545.769531 245.917969 546.519531 248.46875 C 546.886719 249.753906 549.644531 253.964844 552.628906 257.832031 C 555.609375 261.699219 560.507812 268.03125 563.496094 271.894531 C 571.167969 281.804688 572.21875 283.761719 572.925781 289.449219 C 574.082031 298.691406 569.859375 308.699219 562.019531 315.292969 C 554.164062 321.910156 554.507812 321.957031 496.191406 321.957031 C 495.347656 321.957031 494.5 321.957031 493.628906 321.957031 C 458.160156 321.949219 439.40625 321.640625 436.675781 321.011719 C 431.824219 319.875 424.097656 313.347656 403.667969 293.058594 C 396.324219 285.769531 389.550781 279.386719 389.203125 279.386719 C 389.195312 279.386719 389.191406 279.390625 389.191406 279.402344 L 388.949219 321.957031 L 355.84375 321.808594 L 355.640625 212.042969 L 429.472656 212.042969 C 451.722656 212.871094 466.78125 235.820312 463.785156 250.457031 C 463.105469 253.777344 461.371094 258.589844 459.933594 261.144531 C 456.96875 266.398438 449.4375 273.136719 443.320312 276.03125 C 441.0625 277.089844 439.21875 278.320312 439.21875 278.761719 C 439.21875 280.390625 446.652344 287.972656 449.4375 289.175781 C 451.8125 290.207031 458.738281 290.433594 489.285156 290.433594 C 492.863281 290.433594 496.113281 290.4375 499.066406 290.4375 C 529.769531 290.4375 528.222656 290.207031 530.597656 284.957031 C 532.253906 281.300781 530.996094 279.113281 519.308594 265.488281 C 504.507812 250.246094 506.058594 242.941406 505.957031 237.546875 C 505.746094 231.082031 510.660156 210.75 536.214844 210.75 L 604.269531 210.746094 M 405.9375 261.457031 C 420.109375 261.457031 422.988281 261.230469 426.003906 259.875 C 436.1875 255.292969 436.730469 241.753906 426.964844 235.75 C 424.824219 234.433594 422.078125 234.214844 406.714844 234.125 L 388.933594 234.03125 C 389.082031 234.171875 388.878906 260.347656 388.878906 260.347656 C 388.878906 260.347656 393.332031 261.457031 405.9375 261.457031 M 611.667969 203.109375 L 536.214844 203.109375 C 521.425781 203.109375 512.683594 209.152344 507.953125 214.21875 C 500.253906 222.460938 498.441406 232.839844 498.582031 237.730469 C 498.589844 238.140625 498.582031 238.558594 498.578125 238.996094 C 498.511719 246.945312 499.644531 255.949219 513.941406 270.730469 C 516.769531 274.027344 521.496094 279.550781 523.285156 282.296875 C 519.375 282.796875 509.46875 282.796875 499.066406 282.796875 L 494.644531 282.796875 L 489.28125 282.792969 C 470.925781 282.792969 455.449219 282.738281 452.277344 282.089844 C 451.832031 281.792969 451.210938 281.277344 450.527344 280.660156 C 456.871094 276.617188 463.28125 270.351562 466.300781 264.996094 C 468.132812 261.734375 470.152344 256.167969 471 252.042969 C 472.882812 242.851562 469.78125 231.765625 462.699219 222.378906 C 454.441406 211.429688 442.425781 204.878906 429.734375 204.40625 L 429.605469 204.398438 L 348.246094 204.398438 L 348.261719 212.050781 L 348.464844 321.816406 L 348.480469 329.40625 L 355.808594 329.441406 L 388.914062 329.589844 L 396.28125 329.625 L 396.324219 322 L 396.46875 296.503906 C 397.144531 297.167969 397.84375 297.859375 398.558594 298.570312 C 420.902344 320.753906 428.402344 326.902344 435.042969 328.457031 C 436.871094 328.878906 439.886719 329.578125 493.625 329.59375 L 496.1875 329.59375 C 525.277344 329.59375 539.878906 329.59375 548.566406 328.722656 C 558.515625 327.730469 561.714844 325.394531 566.511719 321.347656 L 566.671875 321.214844 C 576.527344 312.921875 581.722656 300.375 580.242188 288.46875 C 579.277344 280.730469 577.296875 277.511719 569.246094 267.117188 L 566.855469 264.023438 C 564.050781 260.394531 560.667969 256.015625 558.394531 253.066406 C 556.5625 250.699219 555.125 248.59375 554.253906 247.214844 C 555.394531 247.210938 556.875 247.207031 558.792969 247.207031 C 573.910156 247.207031 603.875 247.3125 604.175781 247.316406 L 611.5625 247.339844 L 611.578125 239.691406 L 611.648438 210.761719 Z M 396.300781 253.542969 C 396.3125 251.613281 396.324219 249.449219 396.335938 247.28125 C 396.34375 245.375 396.355469 243.460938 396.355469 241.707031 L 406.671875 241.761719 C 412.601562 241.796875 421.523438 241.847656 423.261719 242.359375 C 425.480469 243.753906 426.71875 245.910156 426.585938 248.144531 C 426.511719 249.347656 425.957031 251.566406 423.0625 252.871094 C 421.449219 253.59375 418.875 253.824219 405.9375 253.824219 C 401.832031 253.824219 398.667969 253.699219 396.300781 253.542969 Z M 396.300781 253.542969 "/>
<path style=" stroke:none;fill-rule:nonzero;fill:rgb(100%,90.980392%,12.156863%);fill-opacity:1;" d="M 288.5625 210.296875 L 325.714844 320.960938 L 295.441406 321.105469 L 290.414062 304.484375 L 236.28125 304.035156 L 231.503906 320.675781 L 201.535156 320.347656 L 238.21875 210.34375 L 288.5625 210.296875 M 264.214844 226.523438 C 264.136719 226.839844 259.46875 240.097656 254.785156 253.355469 C 250.066406 266.71875 245.328125 280.082031 245.261719 280.1875 C 245.386719 280.148438 262.152344 280.109375 272.902344 280.109375 C 277.925781 280.109375 281.636719 280.121094 281.707031 280.136719 C 281.707031 280.140625 281.707031 280.144531 281.707031 280.144531 C 281.707031 280.144531 281.707031 280.140625 281.707031 280.140625 C 281.707031 280.140625 281.707031 280.140625 281.707031 280.136719 C 281.519531 279.632812 264.269531 227.167969 264.214844 226.523438 C 264.214844 226.519531 264.214844 226.515625 264.214844 226.515625 C 264.214844 226.515625 264.214844 226.519531 264.214844 226.523438 M 293.804688 202.65625 L 288.554688 202.660156 L 238.214844 202.707031 L 232.957031 202.714844 L 231.246094 207.855469 L 194.5625 317.859375 L 191.21875 327.878906 L 201.457031 327.988281 L 231.429688 328.3125 L 236.992188 328.375 L 238.578125 322.855469 L 241.777344 311.71875 L 284.984375 312.078125 L 288.402344 323.390625 L 290.03125 328.769531 L 295.476562 328.746094 L 325.75 328.605469 L 336.074219 328.550781 L 332.6875 318.457031 L 295.53125 207.796875 Z M 255.878906 272.480469 C 257.277344 268.539062 259.160156 263.210938 261.714844 255.976562 C 262.519531 253.707031 263.25 251.628906 263.921875 249.730469 C 264.535156 251.59375 265.199219 253.625 265.921875 255.835938 C 266.519531 257.65625 269.136719 265.640625 271.382812 272.472656 C 264.707031 272.472656 259.683594 272.472656 255.878906 272.480469 Z M 255.878906 272.480469 "/>
<path style=" stroke:none;fill-rule:nonzero;fill:rgb(100%,90.980392%,12.156863%);fill-opacity:1;" d="M 301.082031 78.214844 L 301.082031 105.515625 L 248.261719 105.515625 L 248.261719 189.019531 L 216.769531 189.019531 L 216.769531 105.449219 L 155.109375 105.628906 C 147.675781 105.628906 146.683594 111.761719 146.683594 114.109375 C 146.683594 116.988281 148.5 119.875 158.476562 132.953125 C 164.949219 141.449219 170.898438 149.925781 171.683594 151.777344 C 175.960938 161.972656 170.425781 177.859375 160.347656 184.3125 C 153.167969 188.90625 154.390625 189.019531 101.042969 189.019531 C 98.300781 189.019531 95.421875 189.019531 92.382812 189.019531 L 34.957031 189.019531 L 34.957031 158.347656 L 125.238281 158.347656 L 127.90625 156.425781 C 129.703125 155.128906 130.746094 153.34375 131.144531 150.902344 C 131.699219 147.386719 131.410156 146.929688 120.261719 133.925781 C 107.082031 118.558594 105.691406 115.75 106.371094 105.9375 C 107.144531 94.738281 116.792969 78.472656 133.652344 78.472656 L 301.082031 78.214844 M 308.460938 70.5625 L 301.074219 70.574219 L 133.640625 70.832031 C 123.996094 70.832031 115.035156 75.144531 108.425781 82.980469 C 103.0625 89.328125 99.542969 97.707031 99.011719 105.390625 C 98.113281 118.289062 100.984375 122.949219 114.742188 138.996094 C 118.734375 143.652344 122.53125 148.082031 123.796875 149.964844 C 123.777344 150.035156 123.761719 150.085938 123.75 150.113281 C 123.734375 150.125 123.714844 150.140625 123.683594 150.160156 L 122.925781 150.707031 L 27.582031 150.707031 L 27.582031 196.65625 L 101.042969 196.65625 C 127.347656 196.65625 140.328125 196.628906 147.980469 196.050781 C 156.730469 195.386719 159.519531 193.832031 163.707031 191.144531 L 164.230469 190.808594 C 177.378906 182.386719 184.15625 162.332031 178.449219 148.734375 C 176.6875 144.574219 165.535156 129.882812 164.269531 128.222656 C 160.769531 123.632812 154.988281 116.058594 154.074219 113.867188 C 154.097656 113.683594 154.140625 113.492188 154.1875 113.359375 C 154.339844 113.316406 154.628906 113.265625 155.109375 113.265625 L 209.390625 113.105469 L 209.390625 196.65625 L 255.636719 196.65625 L 255.636719 113.152344 L 308.460938 113.152344 Z M 308.460938 70.5625 "/>
<path style=" stroke:none;fill-rule:nonzero;fill:rgb(100%,90.980392%,12.156863%);fill-opacity:1;" d="M 386.902344 79.097656 L 423.957031 190.050781 L 393.738281 189.878906 L 388.832031 173.257812 L 334.9375 173.011719 L 330.125 189.019531 L 299.351562 189.019531 L 336 79.097656 L 386.902344 79.097656 M 343.734375 149.382812 L 380.4375 149.332031 C 380.4375 149.332031 380.4375 149.335938 380.4375 149.335938 C 380.566406 149.335938 362.605469 94.730469 362.484375 94.691406 C 362.351562 94.683594 343.320312 149.382812 343.734375 149.382812 M 392.160156 71.464844 L 330.738281 71.464844 L 329.027344 76.609375 L 292.378906 186.527344 L 289 196.65625 L 335.558594 196.65625 L 337.171875 191.289062 L 340.363281 180.671875 L 383.363281 180.871094 L 386.683594 192.109375 L 388.269531 197.484375 L 393.699219 197.515625 L 423.921875 197.6875 L 434.339844 197.746094 L 430.933594 187.554688 L 393.878906 76.605469 Z M 353.984375 141.730469 C 356.261719 135.023438 359.425781 125.828125 362.296875 117.566406 C 365.015625 125.816406 368.019531 134.984375 370.214844 141.710938 Z M 353.984375 141.730469 "/>
<path style=" stroke:none;fill-rule:nonzero;fill:rgb(100%,90.980392%,12.156863%);fill-opacity:1;" d="M 490.96875 79.097656 C 514.875 79.097656 531.464844 79.453125 534.65625 80.027344 C 542.03125 81.355469 548.699219 85.429688 553.699219 91.691406 C 558.925781 98.238281 560.125 101.371094 560.808594 110.34375 C 561.785156 123.015625 555.964844 133.941406 544.484375 141.035156 C 541.136719 143.109375 537.699219 145.125 536.839844 145.527344 C 535.519531 146.144531 535.699219 146.738281 538.058594 149.601562 C 539.578125 151.441406 542.214844 154.066406 543.910156 155.433594 L 547.011719 157.925781 L 604.261719 158.777344 L 604.824219 189.019531 L 569.722656 189.019531 C 542.574219 189.019531 533.886719 188.761719 531.34375 187.871094 C 527.535156 186.535156 518.367188 178.5 499.738281 160.152344 L 486.441406 147.050781 L 486.578125 189.019531 L 452.417969 189.019531 L 452.417969 79.097656 L 490.96875 79.097656 M 485.9375 128.519531 L 504.078125 128.519531 C 521.730469 128.519531 522.28125 128.464844 524.800781 126.507812 C 529.300781 123.015625 530.894531 119.417969 530.417969 113.886719 C 529.925781 108.1875 527.808594 105.21875 522.484375 102.832031 C 519.488281 101.476562 516.597656 101.257812 502.453125 101.257812 L 485.9375 101.257812 L 485.9375 128.519531 M 490.96875 71.464844 L 445.046875 71.464844 L 445.046875 196.65625 L 493.988281 196.65625 L 493.960938 188.992188 L 493.878906 164.917969 L 494.65625 165.683594 C 517.699219 188.378906 524.496094 193.53125 528.976562 195.105469 C 532.417969 196.308594 538.183594 196.65625 569.726562 196.65625 L 612.34375 196.65625 L 612.203125 188.871094 L 611.640625 158.628906 L 611.503906 151.246094 L 604.371094 151.140625 L 549.589844 150.328125 L 548.441406 149.402344 C 548.078125 149.109375 547.636719 148.71875 547.160156 148.277344 C 547.574219 148.027344 547.949219 147.792969 548.277344 147.59375 C 562.109375 139.046875 569.363281 125.246094 568.167969 109.738281 C 567.371094 99.277344 565.566406 94.5625 559.386719 86.828125 C 553.316406 79.21875 544.980469 74.128906 535.917969 72.503906 C 530.886719 71.597656 505.597656 71.464844 490.96875 71.464844 Z M 493.316406 108.894531 L 502.453125 108.894531 C 515.390625 108.894531 517.953125 109.117188 519.53125 109.832031 C 522.527344 111.175781 522.832031 111.828125 523.066406 114.5625 C 523.300781 117.28125 522.980469 118.375 520.371094 120.398438 C 520.285156 120.464844 520.222656 120.515625 520.167969 120.558594 C 518.449219 120.886719 512.066406 120.886719 504.078125 120.886719 L 493.316406 120.886719 Z M 493.316406 108.894531 "/>
</g>
</svg>
